<svg width="110" height="111" viewBox="0 0 110 111" fill="none" xmlns="http://www.w3.org/2000/svg">
<rect x="10" y="10.1" width="90" height="90" rx="1" fill="#D9D9D9" fill-opacity="0.9"/>
<rect x="16.4286" y="16.5286" width="35.3571" height="35.3571" rx="1" fill="white"/>
<rect x="16.4286" y="57.9931" width="35.3571" height="35.3571" rx="1" fill="white"/>
<rect x="58.2143" y="16.5286" width="35.3571" height="35.3571" rx="1" fill="white"/>
<rect x="58.2143" y="57.9931" width="35.3571" height="35.3571" rx="1" fill="white"/>
<path opacity="0.8" d="M22.2142 32.6787C22.2142 32.4578 22.3933 32.2787 22.6142 32.2787H44.3142C44.5352 32.2787 44.7142 32.4578 44.7142 32.6787V37.0216C44.7142 37.2425 44.5352 37.4216 44.3142 37.4216H22.6142C22.3933 37.4216 22.2142 37.2425 22.2142 37.0216V32.6787Z" fill="#D9D9D9" fill-opacity="0.9"/>
<path opacity="0.8" d="M84.6502 84.1995C84.5816 84.286 84.4558 84.3006 84.3692 84.232L67.0496 70.5046C66.963 70.436 66.9485 70.3102 67.0171 70.2237L69.9631 66.5067C70.0317 66.4201 70.1575 66.4056 70.2441 66.4742L87.5637 80.2016C87.6503 80.2702 87.6648 80.396 87.5962 80.4825L84.6502 84.1995Z" fill="#D9D9D9" fill-opacity="0.9"/>
<path d="M23.1907 68.8232C22.752 69.1821 22.5355 69.6561 22.5355 70.1302C22.5355 70.6043 22.752 71.081 23.1935 71.4453L32.1924 83.8058C33.0782 84.5317 34.5012 84.5317 35.3786 83.8058L44.3774 71.4453C45.2548 70.7194 45.2548 69.549 44.3774 68.8232C43.4944 68.0973 42.0687 68.0973 41.1885 68.8232L33.7841 79.8687L26.3797 68.8232C25.4995 68.0973 24.0737 68.0973 23.1907 68.8232Z" fill="#7C7C7C" fill-opacity="0.9"/>
</svg>
